<svg xmlns="http://www.w3.org/2000/svg" width="82.978" height="60.003" viewBox="0 0 82.978 60.003">
  <path id="process_1" d="M517.194,3962.18h-5.225l1.574-17.87v-.11h0a1.2,1.2,0,0,0-.733-1.1s-.007,0-.011-.01l-.083-.03a.039.039,0,0,1-.031-.01.2.2,0,0,1-.071-.02.094.094,0,0,1-.049-.01.14.14,0,0,1-.063-.01h-.059c0-.01-.006-.01-.01-.01H487.449a1.2,1.2,0,1,0,0,2.4h23.557l-2.42,27.48h0l-.61,6.94H465.728l.706-7.22h8.044a1.2,1.2,0,1,0,0-2.4H466.67l1.492-15.23h12.8a1.2,1.2,0,1,0,0-2.41H468.4l.7-7.16h13.487a1.2,1.2,0,1,0,0-2.4H467.994a1.216,1.216,0,0,0-1.186.95.038.038,0,0,0,0,.01c-.007.03-.011.06-.015.09v.04l-.83,8.47H451.216a1.2,1.2,0,1,0,0,2.41h14.5l-1.492,15.23h-4.338a1.2,1.2,0,1,0,0,2.4h4.1l-.812,8.3h0l-1.257,12.82h0v.13h0v.12a.561.561,0,0,0,.014.09v.03c0,.01.011.04.017.07a.125.125,0,0,0,.013.04c.005.01,0,.01,0,.02a1.189,1.189,0,0,0,.289.47l.007.01.041.03a1.079,1.079,0,0,0,.282.19l.065.03a.02.02,0,0,0,.02.01l.093.03c0,.01.006.01.009.01a.4.4,0,0,0,.109.02.014.014,0,0,1,.015.01c.035,0,.07.01.107.01h0a.487.487,0,0,0,.119.01h5.414a9.269,9.269,0,0,0,18.349,0h19.5a9.269,9.269,0,0,0,18.35,0h5.416a.483.483,0,0,0,.12-.01h.034a.318.318,0,0,0,.094-.02h.039a.2.2,0,0,1,.072-.02c.016-.01.031-.01.047-.02s.039-.01.059-.02.033-.01.049-.02l.053-.03a.1.1,0,0,0,.049-.02l.049-.03.045-.03a.168.168,0,0,0,.049-.04l.039-.03c.017-.01.033-.03.049-.04l.033-.03.049-.06.026-.03.05-.06c0-.01.012-.02.017-.03.02-.03.038-.06.055-.09h0c.018-.04.035-.07.05-.11l.012-.03c.01-.02.019-.05.027-.07s.01-.04.014-.05.011-.04.016-.06.007-.04.01-.06.006-.03.008-.05c.052-.4,1-7.96,1.429-12.84v-.02c.122-1.4.2-2.59.2-3.32A15.735,15.735,0,0,0,517.194,3962.18Zm-5.437,2.41h4.974l-.635,7.21h-4.974Zm-34.035,36a6.75,6.75,0,1,1,6.826-6.75,6.75,6.75,0,0,1-6.826,6.75Zm37.851,0a6.75,6.75,0,1,1,6.826-6.75A6.75,6.75,0,0,1,515.573,4000.59Zm13.514-7.95h-4.339a9.269,9.269,0,0,0-18.35,0H486.9a9.269,9.269,0,0,0-18.35,0h-4.076l1.021-10.42h43.72a.022.022,0,0,1,.022-.01c.032,0,.063-.01.1-.01a.057.057,0,0,1,.039-.01c.025-.01.049-.01.073-.02a.275.275,0,0,0,.047-.02.15.15,0,0,0,.061-.02c.017-.01.033-.01.05-.02l.053-.03a.1.1,0,0,0,.049-.02l.05-.03.045-.03a.178.178,0,0,1,.047-.041l.042-.03a.168.168,0,0,1,.045-.04.147.147,0,0,1,.036-.04.2.2,0,0,0,.043-.05l.032-.03.039-.06a.151.151,0,0,0,.028-.04.184.184,0,0,0,.034-.05.171.171,0,0,1,.024-.04c.01-.02.019-.04.028-.06a.353.353,0,0,0,.021-.05c.006-.02.015-.04.022-.06a.226.226,0,0,0,.017-.05.484.484,0,0,1,.015-.05.321.321,0,0,1,.014-.06c0-.02.006-.04.008-.06s.007-.04.009-.06a.015.015,0,0,0,0-.01l.609-6.91H517.2c3.725,0,5.405,1.9,7.184,3.93,1.467,1.66,3.106,3.52,5.891,3.98-.361,3.7-.933,8.441-1.189,10.521Zm1.39-12.93c-1.807-.37-2.919-1.62-4.265-3.15-1.685-1.92-3.741-4.25-7.682-4.69l.629-7.14a13.291,13.291,0,0,1,11.409,13.08c0,.45-.034,1.11-.091,1.9Zm-52.755,9.73a4.405,4.405,0,1,0,4.458,4.4,4.405,4.405,0,0,0-4.458-4.4Zm0,6.41a2,2,0,1,1,2.026-2.01,2,2,0,0,1-2.026,2.01Zm37.851-6.41a4.405,4.405,0,1,0,4.458,4.4,4.405,4.405,0,0,0-4.458-4.4Zm0,6.41a2,2,0,1,1,2.026-2.01,2,2,0,0,1-2.026,2.01Zm-54.063-33.67h-5.944a1.2,1.2,0,1,0,0,2.41h5.944a1.205,1.205,0,0,0,0-2.41Z" transform="translate(-450.011 -3943)" fill="#8f1619" fill-rule="evenodd"/>
</svg>
