<svg xmlns="http://www.w3.org/2000/svg" width="39.001" height="59.292" viewBox="0 0 39.001 59.292">
  <g id="reshot-icon-project-plan-QYP2DS8X7K" transform="translate(-9.2 -1.5)">
    <path id="Caminho_3" data-name="Caminho 3" d="M46.884,58.728H10.518A1.318,1.318,0,0,1,9.2,57.41V9.318A1.318,1.318,0,0,1,10.518,8h9.75a1.318,1.318,0,1,1,0,2.635H11.835V56.093H45.566V10.635H37.133a1.318,1.318,0,0,1,0-2.635h9.75A1.318,1.318,0,0,1,48.2,9.318V57.41A1.318,1.318,0,0,1,46.884,58.728Z" transform="translate(0 2.064)" fill="#8f1619"/>
    <path id="Caminho_4" data-name="Caminho 4" d="M16.508,19.59A2.108,2.108,0,1,1,14.4,21.7a2.108,2.108,0,0,1,2.108-2.108Z" transform="translate(1.652 5.746)" fill="#8f1619" fill-rule="evenodd"/>
    <path id="Caminho_5" data-name="Caminho 5" d="M38.249,22.825H20.2a1.318,1.318,0,1,1,0-2.635H38.249a1.318,1.318,0,1,1,0,2.635Z" transform="translate(3.074 5.936)" fill="#8f1619"/>
    <path id="Caminho_6" data-name="Caminho 6" d="M16.508,26.6A2.108,2.108,0,1,1,14.4,28.708,2.108,2.108,0,0,1,16.508,26.6Z" transform="translate(1.652 7.972)" fill="#8f1619" fill-rule="evenodd"/>
    <path id="Caminho_7" data-name="Caminho 7" d="M38.249,29.835H20.2a1.318,1.318,0,0,1,0-2.635H38.249a1.318,1.318,0,0,1,0,2.635Z" transform="translate(3.074 8.163)" fill="#8f1619"/>
    <path id="Caminho_8" data-name="Caminho 8" d="M16.508,33.6A2.108,2.108,0,1,1,14.4,35.708,2.108,2.108,0,0,1,16.508,33.6Z" transform="translate(1.652 10.195)" fill="#8f1619" fill-rule="evenodd"/>
    <path id="Caminho_9" data-name="Caminho 9" d="M38.249,36.835H20.2a1.318,1.318,0,1,1,0-2.635H38.249a1.318,1.318,0,1,1,0,2.635Z" transform="translate(3.074 10.386)" fill="#8f1619"/>
    <path id="Caminho_10" data-name="Caminho 10" d="M34.783,17.14H17.918A1.318,1.318,0,0,1,16.6,15.822V7.258A1.318,1.318,0,0,1,17.918,5.94h4.032V5.058A3.558,3.558,0,0,1,25.507,1.5h1.687a3.544,3.544,0,0,1,3.544,3.558V5.94h4.045A1.318,1.318,0,0,1,36.1,7.258v8.564A1.318,1.318,0,0,1,34.783,17.14ZM19.235,14.5h14.23V8.576H29.42A1.318,1.318,0,0,1,28.1,7.258v-2.2a.922.922,0,0,0-.909-.922H25.507a.936.936,0,0,0-.922.922v2.2a1.318,1.318,0,0,1-1.318,1.318H19.235Z" transform="translate(2.35 0)" fill="#8f1619"/>
  </g>
</svg>
