<svg xmlns="http://www.w3.org/2000/svg" width="52.857" height="52.857" viewBox="0 0 52.857 52.857">
  <g id="reshot-icon-safe-security-YKDSH753P8" transform="translate(-10 -10)">
    <path id="Caminho_11" data-name="Caminho 11" d="M73.333,10V21.012H84.345Z" transform="translate(-21.488)" fill="#8f1619"/>
    <path id="Caminho_12" data-name="Caminho 12" d="M55.327,24.316V10H30v8.349a36.743,36.743,0,0,1,9.889,1.927l2.224.77v4.371h8.809v4.4H42.113v2.753c0,.555-.039,1.1-.082,1.652h21v4.4H41.227a21.077,21.077,0,0,1-.723,2.048,21.446,21.446,0,0,1-1.173,2.357h23.7v4.4H36.021c-.034.034-.063.075-.1.11A21.033,21.033,0,0,1,30,51.7V62.857H69.643V24.316ZM63.036,56.25H36.607v-4.4H63.036Z" transform="translate(-6.786)" fill="#8f1619"/>
    <path id="Caminho_13" data-name="Caminho 13" d="M21.012,44.572,14.4,37.965l2.336-2.336L21.012,39.9,31.677,29.237a33.951,33.951,0,0,0-21.677.1v9.175A17.88,17.88,0,0,0,21.011,55.034,17.888,17.888,0,0,0,32.023,38.516V33.561Z" transform="translate(0 -5.942)" fill="#8f1619"/>
  </g>
</svg>
