<svg xmlns="http://www.w3.org/2000/svg" width="66.666" height="80" viewBox="0 0 66.666 80">
  <g id="reshot-icon-safe-security-QF478U6GSM" transform="translate(-16.667 -10)">
    <path id="Caminho_1" data-name="Caminho 1" d="M50,28.334a5,5,0,0,0-5,5v3.333H55V33.334A5,5,0,0,0,50,28.334Z" fill="#8f1619"/>
    <path id="Caminho_2" data-name="Caminho 2" d="M16.667,16.667V40A54.11,54.11,0,0,0,50,90,54.146,54.146,0,0,0,83.333,40V16.667A86.666,86.666,0,0,0,16.667,16.667Zm50,41.667a5.012,5.012,0,0,1-5,5H38.334a5.016,5.016,0,0,1-5-5V41.667a5.015,5.015,0,0,1,5-5H40V33.334a10,10,0,1,1,20,0v3.333h1.667a5.011,5.011,0,0,1,5,5Z" fill="#8f1619"/>
    <rect id="Retângulo_8" data-name="Retângulo 8" width="6.666" height="10" transform="translate(46.667 45)" fill="#8f1619"/>
  </g>
</svg>
