<svg xmlns="http://www.w3.org/2000/svg" width="52" height="52" viewBox="0 0 52 52">
  <g id="reshot-icon-earth-CWD52UJZ97" transform="translate(-6 -6)">
    <circle id="circle3" cx="20" cy="20" r="20" transform="translate(12 12)" fill="none" stroke="#8f1619" stroke-linecap="round" stroke-linejoin="round" stroke-miterlimit="2" stroke-width="2"/>
    <path id="path5" d="M46.363,38.667a15.914,15.914,0,0,1-7.7,7.7" fill="none" stroke="#8f1619" stroke-linecap="round" stroke-linejoin="round" stroke-miterlimit="2" stroke-width="2" fill-rule="evenodd"/>
    <path id="path7" d="M15.021,21.432l2.306.329a3.227,3.227,0,0,1,2.429,1.751c.8,1.6,1.973,3.947,2.2,4.408.027.053.055.106.084.158.323.563,2.317,4.053,3.345,5.852a3.222,3.222,0,0,0,1.78,1.46l1.762.587a2.806,2.806,0,0,1,1.622,3.917v0a2.243,2.243,0,0,1-1.781,1.227l-5.378.538a2.049,2.049,0,0,0-1.5,3.177h0a.987.987,0,0,1,.146.353c.123.614.523,2.612.918,4.649" fill="none" stroke="#8f1619" stroke-linecap="round" stroke-linejoin="round" stroke-miterlimit="2" stroke-width="2" fill-rule="evenodd"/>
    <path id="path9" d="M51.21,37.58a3.225,3.225,0,0,1-1.472-.842l-.232-.232a3.246,3.246,0,0,1-.751-1.178c-.579-1.594-2.057-5.657-2.976-8.186A7.911,7.911,0,0,0,43.2,23.6L40.04,21.142a3.225,3.225,0,0,1,.538-5.431l1.716-.858" fill="none" stroke="#8f1619" stroke-linecap="round" stroke-linejoin="round" stroke-miterlimit="2" stroke-width="2" fill-rule="evenodd"/>
    <circle id="circle11" cx="25" cy="25" r="25" transform="translate(7 7)" fill="none" stroke="#8f1619" stroke-linecap="round" stroke-linejoin="round" stroke-miterlimit="2" stroke-width="2"/>
  </g>
</svg>
